<mxfile host="app.diagrams.net" modified="2024-03-19T20:55:19.302Z" agent="Mozilla/5.0 (Windows NT 10.0; Win64; x64) AppleWebKit/537.36 (KHTML, like Gecko) Chrome/122.0.0.0 Safari/537.36" etag="LPAZXjDwJ1mrTKvddj3e" version="24.0.7" type="github">
  <diagram id="uGB7Y_JZGm6S82u2F6Zg" name="Page-1">
    <mxGraphModel dx="5889" dy="1903" grid="1" gridSize="10" guides="1" tooltips="1" connect="1" arrows="1" fold="1" page="0" pageScale="1" pageWidth="827" pageHeight="1169" math="0" shadow="0">
      <root>
        <mxCell id="0" />
        <mxCell id="1" parent="0" />
        <mxCell id="2" parent="1" />
        <mxCell id="adD7HxoxN2HoJ7KB--vp-2" parent="1" />
        <mxCell id="adD7HxoxN2HoJ7KB--vp-3" style="edgeStyle=orthogonalEdgeStyle;rounded=0;orthogonalLoop=1;jettySize=auto;html=1;strokeColor=default;align=center;verticalAlign=middle;fontFamily=Helvetica;fontSize=11;fontColor=default;labelBackgroundColor=default;startArrow=none;startFill=0;endArrow=none;endFill=0;" edge="1" parent="1" source="adD7HxoxN2HoJ7KB--vp-5">
          <mxGeometry relative="1" as="geometry">
            <mxPoint x="-1320" y="690" as="targetPoint" />
          </mxGeometry>
        </mxCell>
        <mxCell id="adD7HxoxN2HoJ7KB--vp-4" style="edgeStyle=orthogonalEdgeStyle;rounded=0;orthogonalLoop=1;jettySize=auto;html=1;strokeColor=default;align=center;verticalAlign=middle;fontFamily=Helvetica;fontSize=11;fontColor=default;labelBackgroundColor=default;startArrow=classic;startFill=1;endArrow=classic;exitX=0.373;exitY=-0.015;exitDx=0;exitDy=0;exitPerimeter=0;entryX=0.379;entryY=0;entryDx=0;entryDy=0;entryPerimeter=0;" edge="1" parent="1" source="adD7HxoxN2HoJ7KB--vp-5" target="adD7HxoxN2HoJ7KB--vp-23">
          <mxGeometry relative="1" as="geometry">
            <mxPoint x="-1190" y="600" as="sourcePoint" />
            <mxPoint x="-1620" y="770" as="targetPoint" />
            <Array as="points">
              <mxPoint x="-1123" y="530" />
              <mxPoint x="-1620" y="530" />
            </Array>
          </mxGeometry>
        </mxCell>
        <mxCell id="adD7HxoxN2HoJ7KB--vp-5" value="User" style="swimlane;whiteSpace=wrap;html=1;" vertex="1" parent="1">
          <mxGeometry x="-1250" y="610" width="340" height="190" as="geometry" />
        </mxCell>
        <mxCell id="adD7HxoxN2HoJ7KB--vp-6" value="&lt;div&gt;&lt;span style=&quot;background-color: initial;&quot;&gt;first_name : CharField&lt;/span&gt;&lt;br&gt;&lt;/div&gt;&lt;div&gt;last_name :&amp;nbsp;&lt;span style=&quot;background-color: initial;&quot;&gt;CharField&lt;/span&gt;&lt;/div&gt;&lt;div&gt;&lt;span style=&quot;background-color: initial;&quot;&gt;user_id : CharField&lt;/span&gt;&lt;span style=&quot;background-color: initial;&quot;&gt;(unique = True, pk = True)&lt;/span&gt;&lt;/div&gt;&lt;div&gt;password : CharField&lt;span style=&quot;background-color: initial;&quot;&gt;&lt;br&gt;&lt;/span&gt;&lt;/div&gt;&lt;div&gt;profile_picture : ImageField(required)&lt;/div&gt;&lt;div&gt;email : EmailField(unique = True)&lt;/div&gt;&lt;div&gt;phone : CharField(unique = True , max_length = 11)&lt;/div&gt;&lt;div&gt;gender : Charfield(choices{&#39;m&#39; : &#39;male&#39; , &#39;f&#39;: &#39;female&#39;})&lt;/div&gt;&lt;div&gt;birthday : DateField&lt;/div&gt;&lt;div&gt;type : CharField ( student , professor , assistant , admin)&amp;nbsp;&lt;/div&gt;&lt;div&gt;&lt;br&gt;&lt;/div&gt;&lt;div&gt;&lt;br&gt;&lt;/div&gt;" style="text;html=1;whiteSpace=wrap;overflow=hidden;rounded=0;" vertex="1" parent="adD7HxoxN2HoJ7KB--vp-5">
          <mxGeometry x="10" y="30" width="320" height="150" as="geometry" />
        </mxCell>
        <mxCell id="adD7HxoxN2HoJ7KB--vp-7" style="edgeStyle=orthogonalEdgeStyle;rounded=0;orthogonalLoop=1;jettySize=auto;html=1;entryX=1;entryY=0.5;entryDx=0;entryDy=0;strokeColor=default;align=center;verticalAlign=middle;fontFamily=Helvetica;fontSize=11;fontColor=default;labelBackgroundColor=default;startArrow=none;startFill=0;endArrow=classic;" edge="1" parent="1" source="adD7HxoxN2HoJ7KB--vp-8" target="adD7HxoxN2HoJ7KB--vp-32">
          <mxGeometry relative="1" as="geometry">
            <Array as="points">
              <mxPoint x="-290" y="1010" />
              <mxPoint x="-290" y="1545" />
            </Array>
          </mxGeometry>
        </mxCell>
        <mxCell id="adD7HxoxN2HoJ7KB--vp-8" value="Student" style="swimlane;whiteSpace=wrap;html=1;" vertex="1" parent="1">
          <mxGeometry x="-900" y="850" width="320" height="190" as="geometry" />
        </mxCell>
        <mxCell id="adD7HxoxN2HoJ7KB--vp-9" value="&lt;div&gt;student_id : OneToOneField(User)&lt;/div&gt;&lt;div&gt;entrance_year : DateField&lt;/div&gt;&lt;div&gt;entrance_semester : CharField&lt;/div&gt;&lt;div&gt;grade : &lt;span style=&quot;background-color: initial; white-space: pre;&quot;&gt;&lt;font face=&quot;Helvetica&quot; style=&quot;font-size: 12px;&quot;&gt;FloatField&lt;/font&gt;&lt;/span&gt;&lt;/div&gt;&lt;div&gt;&lt;span style=&quot;background-color: initial; white-space: pre;&quot;&gt;&lt;font face=&quot;Helvetica&quot; style=&quot;font-size: 12px;&quot;&gt;faculty : CharField&lt;/font&gt;&lt;/span&gt;&lt;/div&gt;&lt;div&gt;&lt;span style=&quot;background-color: initial; white-space: pre;&quot;&gt;&lt;font face=&quot;Helvetica&quot; style=&quot;font-size: 12px;&quot;&gt;major : CharField&lt;/font&gt;&lt;/span&gt;&lt;/div&gt;&lt;div&gt;&lt;span style=&quot;background-color: initial; white-space: pre;&quot;&gt;&lt;font face=&quot;Helvetica&quot; style=&quot;font-size: 12px;&quot;&gt;passed_courses : CharField&lt;/font&gt;&lt;/span&gt;&lt;/div&gt;&lt;div&gt;&lt;span style=&quot;white-space: pre;&quot;&gt;ongoing_courses : Charfield&lt;/span&gt;&lt;/div&gt;&lt;div&gt;&lt;span style=&quot;white-space: pre;&quot;&gt;teaching_assistant : CharField&lt;/span&gt;&lt;/div&gt;&lt;div&gt;&lt;span style=&quot;white-space: pre;&quot;&gt;military_service : BooleanField ( if male required else null )&lt;/span&gt;&lt;/div&gt;&lt;div&gt;&lt;span style=&quot;white-space: pre;&quot;&gt;سنوات ؟&lt;/span&gt;&lt;/div&gt;&lt;div&gt;&lt;span style=&quot;white-space: pre;&quot;&gt;&lt;br&gt;&lt;/span&gt;&lt;/div&gt;&lt;div&gt;&lt;span style=&quot;white-space: pre;&quot;&gt;&lt;br&gt;&lt;/span&gt;&lt;/div&gt;" style="text;html=1;whiteSpace=wrap;overflow=hidden;rounded=0;" vertex="1" parent="1">
          <mxGeometry x="-900" y="870" width="320" height="160" as="geometry" />
        </mxCell>
        <mxCell id="adD7HxoxN2HoJ7KB--vp-10" value="Professor" style="swimlane;whiteSpace=wrap;html=1;" vertex="1" parent="1">
          <mxGeometry x="-1280" y="900" width="230" height="140" as="geometry" />
        </mxCell>
        <mxCell id="adD7HxoxN2HoJ7KB--vp-11" value="&lt;div&gt;&lt;br&gt;&lt;/div&gt;&lt;div&gt;&lt;br&gt;&lt;/div&gt;&lt;div&gt;professor_id :&lt;span style=&quot;background-color: initial;&quot;&gt;&amp;nbsp;OneToOneField(user_id)&lt;/span&gt;&lt;/div&gt;faculty : CharField&lt;div&gt;major : Charfield&lt;/div&gt;&lt;div&gt;specialization: CharField&lt;/div&gt;&lt;div&gt;rank : CharField&lt;/div&gt;&lt;div&gt;courses_taught : CharField&lt;/div&gt;&lt;div&gt;&lt;br&gt;&lt;/div&gt;" style="text;html=1;whiteSpace=wrap;overflow=hidden;rounded=0;" vertex="1" parent="adD7HxoxN2HoJ7KB--vp-10">
          <mxGeometry x="5" width="225" height="140" as="geometry" />
        </mxCell>
        <mxCell id="adD7HxoxN2HoJ7KB--vp-12" value="&lt;span style=&quot;font-family: Söhne, ui-sans-serif, system-ui, -apple-system, &amp;quot;Segoe UI&amp;quot;, Roboto, Ubuntu, Cantarell, &amp;quot;Noto Sans&amp;quot;, sans-serif, &amp;quot;Helvetica Neue&amp;quot;, Arial, &amp;quot;Apple Color Emoji&amp;quot;, &amp;quot;Segoe UI Emoji&amp;quot;, &amp;quot;Segoe UI Symbol&amp;quot;, &amp;quot;Noto Color Emoji&amp;quot;; font-size: 16px; font-weight: 400; text-align: start; white-space-collapse: preserve; background-color: rgb(255, 255, 255);&quot;&gt;Assistant&lt;/span&gt;" style="swimlane;whiteSpace=wrap;html=1;" vertex="1" parent="1">
          <mxGeometry x="-1560" y="660" width="240" height="70" as="geometry" />
        </mxCell>
        <mxCell id="adD7HxoxN2HoJ7KB--vp-13" value="&lt;div&gt;assistant_id :&lt;span style=&quot;background-color: initial;&quot;&gt;&amp;nbsp;OneToOneField(user_id)&lt;/span&gt;&lt;/div&gt;faculty : CharField&lt;div&gt;major : CharField&lt;/div&gt;" style="text;html=1;whiteSpace=wrap;overflow=hidden;rounded=0;" vertex="1" parent="adD7HxoxN2HoJ7KB--vp-12">
          <mxGeometry x="5" y="20" width="225" height="50" as="geometry" />
        </mxCell>
        <mxCell id="adD7HxoxN2HoJ7KB--vp-14" style="edgeStyle=orthogonalEdgeStyle;rounded=0;orthogonalLoop=1;jettySize=auto;html=1;strokeColor=default;align=center;verticalAlign=middle;fontFamily=Helvetica;fontSize=11;fontColor=default;labelBackgroundColor=default;startArrow=none;startFill=0;endArrow=classic;exitX=0;exitY=0.5;exitDx=0;exitDy=0;" edge="1" parent="1" source="adD7HxoxN2HoJ7KB--vp-25" target="adD7HxoxN2HoJ7KB--vp-16">
          <mxGeometry relative="1" as="geometry" />
        </mxCell>
        <mxCell id="adD7HxoxN2HoJ7KB--vp-15" style="edgeStyle=orthogonalEdgeStyle;rounded=0;orthogonalLoop=1;jettySize=auto;html=1;strokeColor=default;align=center;verticalAlign=middle;fontFamily=Helvetica;fontSize=11;fontColor=default;labelBackgroundColor=default;startArrow=classic;startFill=1;endArrow=classic;" edge="1" parent="1" source="adD7HxoxN2HoJ7KB--vp-16">
          <mxGeometry relative="1" as="geometry">
            <mxPoint x="-1530" y="1170" as="targetPoint" />
            <Array as="points">
              <mxPoint x="-1395" y="1100" />
              <mxPoint x="-1580" y="1100" />
              <mxPoint x="-1580" y="1170" />
              <mxPoint x="-1530" y="1170" />
            </Array>
          </mxGeometry>
        </mxCell>
        <mxCell id="adD7HxoxN2HoJ7KB--vp-16" value="&lt;span style=&quot;font-family: Söhne, ui-sans-serif, system-ui, -apple-system, &amp;quot;Segoe UI&amp;quot;, Roboto, Ubuntu, Cantarell, &amp;quot;Noto Sans&amp;quot;, sans-serif, &amp;quot;Helvetica Neue&amp;quot;, Arial, &amp;quot;Apple Color Emoji&amp;quot;, &amp;quot;Segoe UI Emoji&amp;quot;, &amp;quot;Segoe UI Symbol&amp;quot;, &amp;quot;Noto Color Emoji&amp;quot;; font-size: 16px; font-weight: 400; text-align: start; white-space-collapse: preserve; background-color: rgb(255, 255, 255);&quot;&gt;Approved Course&lt;/span&gt;" style="swimlane;whiteSpace=wrap;html=1;" vertex="1" parent="1">
          <mxGeometry x="-1530" y="1120" width="270" height="150" as="geometry" />
        </mxCell>
        <mxCell id="adD7HxoxN2HoJ7KB--vp-17" value="title : CharField&lt;div&gt;faculty : ForeignKey(Faculty)&lt;/div&gt;&lt;div&gt;&lt;span style=&quot;background-color: initial;&quot;&gt;prerequisites : ManyToMany(Approved Course)&lt;/span&gt;&lt;/div&gt;&lt;div&gt;corequisites :&amp;nbsp;&lt;span style=&quot;background-color: initial;&quot;&gt;ManyToMany(Approved Course)&lt;/span&gt;&lt;/div&gt;&lt;div&gt;credit : IntegerField&lt;/div&gt;&lt;div&gt;type : CharField&lt;/div&gt;" style="text;html=1;whiteSpace=wrap;overflow=hidden;rounded=0;" vertex="1" parent="adD7HxoxN2HoJ7KB--vp-16">
          <mxGeometry x="5" y="30" width="260" height="120" as="geometry" />
        </mxCell>
        <mxCell id="adD7HxoxN2HoJ7KB--vp-18" value="Semester Course" style="swimlane;whiteSpace=wrap;html=1;" vertex="1" parent="1">
          <mxGeometry x="-1910" y="1135" width="220" height="150" as="geometry" />
        </mxCell>
        <mxCell id="adD7HxoxN2HoJ7KB--vp-19" value="&lt;div&gt;course : ForeignKey(Approved Course)&lt;/div&gt;schedule : DateTimeField&lt;div&gt;exam_date : DateTimeField&lt;/div&gt;&lt;div&gt;exam_hall : CharField&lt;/div&gt;&lt;div&gt;professor : CharField&lt;/div&gt;&lt;div&gt;capacity : &lt;span style=&quot;background-color: initial;&quot;&gt;IntegerField&lt;/span&gt;&lt;/div&gt;&lt;div&gt;&lt;span style=&quot;background-color: initial;&quot;&gt;semester : CharField&lt;/span&gt;&lt;/div&gt;" style="text;html=1;whiteSpace=wrap;overflow=hidden;rounded=0;" vertex="1" parent="adD7HxoxN2HoJ7KB--vp-18">
          <mxGeometry y="30" width="215" height="130" as="geometry" />
        </mxCell>
        <mxCell id="adD7HxoxN2HoJ7KB--vp-20" value="Student&#39;s Course" style="swimlane;whiteSpace=wrap;html=1;" vertex="1" parent="1">
          <mxGeometry x="-980" y="1135" width="350" height="120" as="geometry" />
        </mxCell>
        <mxCell id="adD7HxoxN2HoJ7KB--vp-21" value="&lt;div&gt;student : ForeignKey(Student)&lt;/div&gt;&lt;div&gt;course : ForeignKey(Approved Course)&lt;/div&gt;course_status : CharField&lt;div&gt;student_grade : DecimalField(max_digits=4 , decimal_places=2)&lt;/div&gt;&lt;div&gt;semester : CharField&lt;/div&gt;&lt;div&gt;&lt;br&gt;&lt;/div&gt;" style="text;html=1;whiteSpace=wrap;overflow=hidden;rounded=0;" vertex="1" parent="adD7HxoxN2HoJ7KB--vp-20">
          <mxGeometry y="20" width="350" height="90" as="geometry" />
        </mxCell>
        <mxCell id="adD7HxoxN2HoJ7KB--vp-22" style="edgeStyle=orthogonalEdgeStyle;rounded=0;orthogonalLoop=1;jettySize=auto;html=1;strokeColor=default;align=center;verticalAlign=middle;fontFamily=Helvetica;fontSize=11;fontColor=default;labelBackgroundColor=default;startArrow=none;startFill=0;endArrow=classic;entryX=0.382;entryY=1.029;entryDx=0;entryDy=0;entryPerimeter=0;" edge="1" parent="1" source="adD7HxoxN2HoJ7KB--vp-23" target="adD7HxoxN2HoJ7KB--vp-38">
          <mxGeometry relative="1" as="geometry">
            <mxPoint x="-1830" y="800" as="targetPoint" />
            <Array as="points">
              <mxPoint x="-1937" y="865" />
            </Array>
          </mxGeometry>
        </mxCell>
        <mxCell id="adD7HxoxN2HoJ7KB--vp-23" value="Semester" style="swimlane;whiteSpace=wrap;html=1;" vertex="1" parent="1">
          <mxGeometry x="-1730" y="780" width="290" height="170" as="geometry" />
        </mxCell>
        <mxCell id="adD7HxoxN2HoJ7KB--vp-24" value="title : CharField&lt;div&gt;people_assigned : ManyToManyField(User)&lt;/div&gt;&lt;div&gt;courses :&amp;nbsp;ManyToManyField(ApprovedCourse)&lt;/div&gt;&lt;div&gt;course_selection_period : DateField&lt;/div&gt;&lt;div&gt;course_period : DateField&lt;/div&gt;&lt;div&gt;grade_remediation_period : DateField&lt;br&gt;&lt;/div&gt;&lt;div&gt;emergency_withdrawal_end : DateField&lt;/div&gt;&lt;div&gt;exam_start : DateField&lt;/div&gt;&lt;div&gt;semester_end : DateField&lt;/div&gt;" style="text;html=1;whiteSpace=wrap;overflow=hidden;rounded=0;" vertex="1" parent="adD7HxoxN2HoJ7KB--vp-23">
          <mxGeometry y="25" width="290" height="140" as="geometry" />
        </mxCell>
        <mxCell id="adD7HxoxN2HoJ7KB--vp-25" value="Faculty" style="swimlane;whiteSpace=wrap;html=1;" vertex="1" parent="1">
          <mxGeometry x="-1160" y="1160" width="90" height="50" as="geometry" />
        </mxCell>
        <mxCell id="adD7HxoxN2HoJ7KB--vp-26" value="title : CharField" style="text;html=1;whiteSpace=wrap;overflow=hidden;rounded=0;" vertex="1" parent="adD7HxoxN2HoJ7KB--vp-25">
          <mxGeometry x="5" y="20" width="85" height="30" as="geometry" />
        </mxCell>
        <mxCell id="adD7HxoxN2HoJ7KB--vp-27" value="Major" style="swimlane;whiteSpace=wrap;html=1;" vertex="1" parent="1">
          <mxGeometry x="-1240" y="1330" width="200" height="100" as="geometry" />
        </mxCell>
        <mxCell id="adD7HxoxN2HoJ7KB--vp-28" value="title : CharField&lt;div&gt;department : CharField&lt;/div&gt;&lt;div&gt;faculty : CharField&lt;/div&gt;&lt;div&gt;credit : IntegerField&lt;/div&gt;&lt;div&gt;degree_level : CharField&lt;/div&gt;&lt;div&gt;&lt;br&gt;&lt;/div&gt;" style="text;html=1;whiteSpace=wrap;overflow=hidden;rounded=0;" vertex="1" parent="adD7HxoxN2HoJ7KB--vp-27">
          <mxGeometry y="20" width="200" height="80" as="geometry" />
        </mxCell>
        <mxCell id="adD7HxoxN2HoJ7KB--vp-29" value="Course Selection Request" style="swimlane;whiteSpace=wrap;html=1;" vertex="1" parent="1">
          <mxGeometry x="-1320" y="1600" width="320" height="90" as="geometry" />
        </mxCell>
        <mxCell id="adD7HxoxN2HoJ7KB--vp-30" value="student : ForeignKey(Student)&lt;div&gt;requested_courses :&amp;nbsp;&lt;span style=&quot;background-color: initial;&quot;&gt;ManyToManyField(ApprovedCourse)&lt;/span&gt;&lt;/div&gt;&lt;div&gt;status : BooleanField&lt;/div&gt;" style="text;html=1;whiteSpace=wrap;overflow=hidden;rounded=0;" vertex="1" parent="adD7HxoxN2HoJ7KB--vp-29">
          <mxGeometry x="5" y="30" width="315" height="60" as="geometry" />
        </mxCell>
        <mxCell id="adD7HxoxN2HoJ7KB--vp-31" value="Grade Remediation Request" style="swimlane;whiteSpace=wrap;html=1;" vertex="1" parent="1">
          <mxGeometry x="-1320" y="1490" width="310" height="90" as="geometry" />
        </mxCell>
        <mxCell id="adD7HxoxN2HoJ7KB--vp-32" value="student :&amp;nbsp;ForeignKey(Student)&lt;div&gt;courses_removed :&amp;nbsp;ManyToManyField(ApprovedCourse)&lt;/div&gt;&lt;div&gt;courses_added :&amp;nbsp;ManyToManyField(ApprovedCourse)&lt;/div&gt;&lt;div&gt;status : BooleanField&lt;/div&gt;" style="text;html=1;whiteSpace=wrap;overflow=hidden;rounded=0;" vertex="1" parent="adD7HxoxN2HoJ7KB--vp-31">
          <mxGeometry y="20" width="310" height="70" as="geometry" />
        </mxCell>
        <mxCell id="adD7HxoxN2HoJ7KB--vp-33" value="Reconsideration Request" style="swimlane;whiteSpace=wrap;html=1;" vertex="1" parent="1">
          <mxGeometry x="-1265" y="1720" width="215" height="90" as="geometry" />
        </mxCell>
        <mxCell id="adD7HxoxN2HoJ7KB--vp-34" value="student : ForeignKey(Student)&lt;div&gt;&lt;div&gt;course :&amp;nbsp;&lt;span style=&quot;background-color: initial;&quot;&gt;ForeignKey(Approved Course)&lt;/span&gt;&lt;/div&gt;&lt;div&gt;reconsideration_lettter : TextField&lt;/div&gt;&lt;div&gt;answer : TextField&lt;/div&gt;&lt;div&gt;&lt;br&gt;&lt;/div&gt;&lt;/div&gt;" style="text;html=1;whiteSpace=wrap;overflow=hidden;rounded=0;" vertex="1" parent="adD7HxoxN2HoJ7KB--vp-33">
          <mxGeometry y="20" width="220" height="70" as="geometry" />
        </mxCell>
        <mxCell id="adD7HxoxN2HoJ7KB--vp-35" value="Emergency Course Removal Request" style="swimlane;whiteSpace=wrap;html=1;" vertex="1" parent="1">
          <mxGeometry x="-1295" y="1830" width="270" height="110" as="geometry" />
        </mxCell>
        <mxCell id="adD7HxoxN2HoJ7KB--vp-36" value="student : ForeignKey(Student)&lt;div&gt;course :&amp;nbsp;&lt;span style=&quot;background-color: initial;&quot;&gt;ForeignKey(Approved Course)&lt;/span&gt;&lt;/div&gt;&lt;div&gt;status : BooleanField&lt;/div&gt;&lt;div&gt;explanation_letter : TextField&lt;/div&gt;&lt;div&gt;assistant_explanation_letter : TextField&lt;/div&gt;&lt;div&gt;&lt;br&gt;&lt;/div&gt;" style="text;html=1;whiteSpace=wrap;overflow=hidden;rounded=0;" vertex="1" parent="adD7HxoxN2HoJ7KB--vp-35">
          <mxGeometry y="20" width="270" height="90" as="geometry" />
        </mxCell>
        <mxCell id="adD7HxoxN2HoJ7KB--vp-37" value="Emergency Semester Removal Request" style="swimlane;whiteSpace=wrap;html=1;" vertex="1" parent="1">
          <mxGeometry x="-2040" y="590" width="270" height="120" as="geometry" />
        </mxCell>
        <mxCell id="adD7HxoxN2HoJ7KB--vp-38" value="&lt;div&gt;student : ForeignKey(Student)&lt;/div&gt;&lt;div&gt;semester : ForeignKey(Semester)&lt;/div&gt;&lt;div&gt;status : BooleanField&lt;/div&gt;&lt;div&gt;سنوات_status : BooleanField&lt;/div&gt;&lt;div&gt;&lt;div&gt;explanation_letter : TextField&lt;/div&gt;&lt;div&gt;assistant_explanation_letter : TextField&lt;/div&gt;&lt;/div&gt;" style="text;html=1;whiteSpace=wrap;overflow=hidden;rounded=0;" vertex="1" parent="adD7HxoxN2HoJ7KB--vp-37">
          <mxGeometry y="20" width="270" height="100" as="geometry" />
        </mxCell>
        <mxCell id="adD7HxoxN2HoJ7KB--vp-39" value="Deferment Request (for Males)" style="swimlane;whiteSpace=wrap;html=1;startSize=23;" vertex="1" parent="1">
          <mxGeometry x="-2040" y="420" width="200" height="90" as="geometry" />
        </mxCell>
        <mxCell id="adD7HxoxN2HoJ7KB--vp-40" value="&lt;div&gt;&lt;div&gt;student : ForeignKey(Student)&lt;/div&gt;&lt;div&gt;semester : ForeignKey(Semester)&lt;/div&gt;&lt;/div&gt;&lt;div&gt;deferment_file : FileField&lt;/div&gt;&lt;div&gt;issued_location : CharField&lt;/div&gt;" style="text;html=1;whiteSpace=wrap;overflow=hidden;rounded=0;" vertex="1" parent="adD7HxoxN2HoJ7KB--vp-39">
          <mxGeometry y="20" width="200" height="70" as="geometry" />
        </mxCell>
        <mxCell id="adD7HxoxN2HoJ7KB--vp-41" style="edgeStyle=orthogonalEdgeStyle;rounded=0;orthogonalLoop=1;jettySize=auto;html=1;entryX=0.495;entryY=-0.017;entryDx=0;entryDy=0;entryPerimeter=0;startArrow=none;startFill=0;endArrow=none;endFill=0;" edge="1" parent="1" source="adD7HxoxN2HoJ7KB--vp-5" target="adD7HxoxN2HoJ7KB--vp-8">
          <mxGeometry relative="1" as="geometry">
            <Array as="points">
              <mxPoint x="-742" y="710" />
            </Array>
          </mxGeometry>
        </mxCell>
        <mxCell id="adD7HxoxN2HoJ7KB--vp-42" style="edgeStyle=orthogonalEdgeStyle;rounded=0;orthogonalLoop=1;jettySize=auto;html=1;entryX=0.481;entryY=-0.015;entryDx=0;entryDy=0;entryPerimeter=0;strokeColor=default;align=center;verticalAlign=middle;fontFamily=Helvetica;fontSize=11;fontColor=default;labelBackgroundColor=default;startArrow=none;startFill=0;endArrow=none;endFill=0;" edge="1" parent="1" source="adD7HxoxN2HoJ7KB--vp-5" target="adD7HxoxN2HoJ7KB--vp-11">
          <mxGeometry relative="1" as="geometry" />
        </mxCell>
        <mxCell id="adD7HxoxN2HoJ7KB--vp-43" style="edgeStyle=orthogonalEdgeStyle;rounded=0;orthogonalLoop=1;jettySize=auto;html=1;strokeColor=default;align=center;verticalAlign=middle;fontFamily=Helvetica;fontSize=11;fontColor=default;labelBackgroundColor=default;startArrow=none;startFill=0;endArrow=classic;" edge="1" parent="1" target="adD7HxoxN2HoJ7KB--vp-18">
          <mxGeometry relative="1" as="geometry">
            <mxPoint x="-1530" y="1240" as="sourcePoint" />
            <Array as="points">
              <mxPoint x="-1530" y="1190" />
            </Array>
          </mxGeometry>
        </mxCell>
        <mxCell id="adD7HxoxN2HoJ7KB--vp-44" style="edgeStyle=orthogonalEdgeStyle;rounded=0;orthogonalLoop=1;jettySize=auto;html=1;entryX=0.719;entryY=-0.006;entryDx=0;entryDy=0;entryPerimeter=0;strokeColor=default;align=center;verticalAlign=middle;fontFamily=Helvetica;fontSize=11;fontColor=default;labelBackgroundColor=default;startArrow=none;startFill=0;endArrow=classic;" edge="1" parent="1" source="adD7HxoxN2HoJ7KB--vp-26" target="adD7HxoxN2HoJ7KB--vp-27">
          <mxGeometry relative="1" as="geometry" />
        </mxCell>
        <mxCell id="adD7HxoxN2HoJ7KB--vp-45" style="edgeStyle=orthogonalEdgeStyle;rounded=0;orthogonalLoop=1;jettySize=auto;html=1;entryX=0.685;entryY=-0.023;entryDx=0;entryDy=0;entryPerimeter=0;strokeColor=default;align=center;verticalAlign=middle;fontFamily=Helvetica;fontSize=11;fontColor=default;labelBackgroundColor=default;startArrow=none;startFill=0;endArrow=classic;" edge="1" parent="1" source="adD7HxoxN2HoJ7KB--vp-8" target="adD7HxoxN2HoJ7KB--vp-20">
          <mxGeometry relative="1" as="geometry" />
        </mxCell>
        <mxCell id="adD7HxoxN2HoJ7KB--vp-46" style="edgeStyle=orthogonalEdgeStyle;rounded=0;orthogonalLoop=1;jettySize=auto;html=1;entryX=0.027;entryY=-0.014;entryDx=0;entryDy=0;entryPerimeter=0;strokeColor=default;align=center;verticalAlign=middle;fontFamily=Helvetica;fontSize=11;fontColor=default;labelBackgroundColor=default;startArrow=none;startFill=0;endArrow=classic;" edge="1" parent="1" source="adD7HxoxN2HoJ7KB--vp-16" target="adD7HxoxN2HoJ7KB--vp-20">
          <mxGeometry relative="1" as="geometry">
            <Array as="points">
              <mxPoint x="-1340" y="1080" />
              <mxPoint x="-970" y="1080" />
            </Array>
          </mxGeometry>
        </mxCell>
        <mxCell id="adD7HxoxN2HoJ7KB--vp-47" style="edgeStyle=orthogonalEdgeStyle;rounded=0;orthogonalLoop=1;jettySize=auto;html=1;strokeColor=default;align=center;verticalAlign=middle;fontFamily=Helvetica;fontSize=11;fontColor=default;labelBackgroundColor=default;startArrow=classic;startFill=1;endArrow=classic;" edge="1" parent="1">
          <mxGeometry relative="1" as="geometry">
            <mxPoint x="-1360" y="1120" as="sourcePoint" />
            <mxPoint x="-1600" y="950" as="targetPoint" />
            <Array as="points">
              <mxPoint x="-1360" y="980" />
              <mxPoint x="-1600" y="980" />
            </Array>
          </mxGeometry>
        </mxCell>
        <mxCell id="adD7HxoxN2HoJ7KB--vp-48" style="edgeStyle=orthogonalEdgeStyle;rounded=0;orthogonalLoop=1;jettySize=auto;html=1;entryX=0;entryY=0.75;entryDx=0;entryDy=0;strokeColor=default;align=center;verticalAlign=middle;fontFamily=Helvetica;fontSize=11;fontColor=default;labelBackgroundColor=default;startArrow=classic;startFill=1;endArrow=classic;" edge="1" parent="1" source="adD7HxoxN2HoJ7KB--vp-17" target="adD7HxoxN2HoJ7KB--vp-32">
          <mxGeometry relative="1" as="geometry" />
        </mxCell>
        <mxCell id="adD7HxoxN2HoJ7KB--vp-49" style="edgeStyle=orthogonalEdgeStyle;rounded=0;orthogonalLoop=1;jettySize=auto;html=1;strokeColor=default;align=center;verticalAlign=middle;fontFamily=Helvetica;fontSize=11;fontColor=default;labelBackgroundColor=default;startArrow=none;startFill=0;endArrow=classic;exitX=1;exitY=0.75;exitDx=0;exitDy=0;" edge="1" parent="1" source="adD7HxoxN2HoJ7KB--vp-9">
          <mxGeometry relative="1" as="geometry">
            <mxPoint x="-510" y="990" as="sourcePoint" />
            <mxPoint x="-1000" y="1655" as="targetPoint" />
            <Array as="points">
              <mxPoint x="-580" y="980" />
              <mxPoint x="-220" y="980" />
              <mxPoint x="-220" y="1655" />
            </Array>
          </mxGeometry>
        </mxCell>
        <mxCell id="adD7HxoxN2HoJ7KB--vp-50" style="edgeStyle=orthogonalEdgeStyle;rounded=0;orthogonalLoop=1;jettySize=auto;html=1;strokeColor=default;align=center;verticalAlign=middle;fontFamily=Helvetica;fontSize=11;fontColor=default;labelBackgroundColor=default;startArrow=classic;startFill=1;endArrow=classic;exitX=0.154;exitY=1.02;exitDx=0;exitDy=0;exitPerimeter=0;" edge="1" parent="1">
          <mxGeometry relative="1" as="geometry">
            <mxPoint x="-1484.96" y="1270" as="sourcePoint" />
            <mxPoint x="-1320" y="1653" as="targetPoint" />
            <Array as="points">
              <mxPoint x="-1485" y="1653" />
            </Array>
          </mxGeometry>
        </mxCell>
        <mxCell id="adD7HxoxN2HoJ7KB--vp-51" style="edgeStyle=orthogonalEdgeStyle;rounded=0;orthogonalLoop=1;jettySize=auto;html=1;strokeColor=default;align=center;verticalAlign=middle;fontFamily=Helvetica;fontSize=11;fontColor=default;labelBackgroundColor=default;startArrow=none;startFill=0;endArrow=classic;entryX=1;entryY=0.5;entryDx=0;entryDy=0;" edge="1" parent="1" target="adD7HxoxN2HoJ7KB--vp-34">
          <mxGeometry relative="1" as="geometry">
            <mxPoint x="-580" y="880" as="sourcePoint" />
            <mxPoint x="-990" y="1665" as="targetPoint" />
            <Array as="points">
              <mxPoint x="-580" y="950" />
              <mxPoint x="-170" y="950" />
              <mxPoint x="-170" y="1775" />
            </Array>
          </mxGeometry>
        </mxCell>
        <mxCell id="adD7HxoxN2HoJ7KB--vp-52" style="edgeStyle=orthogonalEdgeStyle;rounded=0;orthogonalLoop=1;jettySize=auto;html=1;entryX=0;entryY=0.5;entryDx=0;entryDy=0;strokeColor=default;align=center;verticalAlign=middle;fontFamily=Helvetica;fontSize=11;fontColor=default;labelBackgroundColor=default;startArrow=none;startFill=0;endArrow=classic;" edge="1" parent="1" target="adD7HxoxN2HoJ7KB--vp-34">
          <mxGeometry relative="1" as="geometry">
            <mxPoint x="-1530" y="1210" as="sourcePoint" />
            <Array as="points">
              <mxPoint x="-1530" y="1230" />
              <mxPoint x="-1560" y="1230" />
              <mxPoint x="-1560" y="1775" />
            </Array>
          </mxGeometry>
        </mxCell>
        <mxCell id="adD7HxoxN2HoJ7KB--vp-53" style="edgeStyle=orthogonalEdgeStyle;rounded=0;orthogonalLoop=1;jettySize=auto;html=1;entryX=-0.001;entryY=0.307;entryDx=0;entryDy=0;strokeColor=default;align=center;verticalAlign=middle;fontFamily=Helvetica;fontSize=11;fontColor=default;labelBackgroundColor=default;startArrow=none;startFill=0;endArrow=classic;entryPerimeter=0;" edge="1" parent="1" target="adD7HxoxN2HoJ7KB--vp-36">
          <mxGeometry relative="1" as="geometry">
            <mxPoint x="-1530" y="1220" as="sourcePoint" />
            <mxPoint x="-1255" y="1785" as="targetPoint" />
            <Array as="points">
              <mxPoint x="-1530" y="1210" />
              <mxPoint x="-1650" y="1210" />
              <mxPoint x="-1650" y="1878" />
            </Array>
          </mxGeometry>
        </mxCell>
        <mxCell id="adD7HxoxN2HoJ7KB--vp-54" style="edgeStyle=orthogonalEdgeStyle;rounded=0;orthogonalLoop=1;jettySize=auto;html=1;strokeColor=default;align=center;verticalAlign=middle;fontFamily=Helvetica;fontSize=11;fontColor=default;labelBackgroundColor=default;startArrow=none;startFill=0;endArrow=classic;entryX=1;entryY=0.5;entryDx=0;entryDy=0;exitX=1;exitY=0;exitDx=0;exitDy=0;" edge="1" parent="1" source="adD7HxoxN2HoJ7KB--vp-9">
          <mxGeometry relative="1" as="geometry">
            <mxPoint x="-557.5" y="990" as="sourcePoint" />
            <mxPoint x="-1022.5" y="1885" as="targetPoint" />
            <Array as="points">
              <mxPoint x="-580" y="930" />
              <mxPoint x="-120" y="930" />
              <mxPoint x="-120" y="1885" />
            </Array>
          </mxGeometry>
        </mxCell>
        <mxCell id="adD7HxoxN2HoJ7KB--vp-55" style="edgeStyle=orthogonalEdgeStyle;rounded=0;orthogonalLoop=1;jettySize=auto;html=1;strokeColor=default;align=center;verticalAlign=middle;fontFamily=Helvetica;fontSize=11;fontColor=default;labelBackgroundColor=default;startArrow=none;startFill=0;endArrow=classic;entryX=0.956;entryY=-0.02;entryDx=0;entryDy=0;entryPerimeter=0;" edge="1" parent="1" target="adD7HxoxN2HoJ7KB--vp-37">
          <mxGeometry relative="1" as="geometry">
            <mxPoint x="-680" y="850" as="sourcePoint" />
            <mxPoint x="-1780" y="570" as="targetPoint" />
            <Array as="points">
              <mxPoint x="-680" y="470" />
              <mxPoint x="-1782" y="470" />
            </Array>
          </mxGeometry>
        </mxCell>
        <mxCell id="adD7HxoxN2HoJ7KB--vp-56" style="edgeStyle=orthogonalEdgeStyle;rounded=0;orthogonalLoop=1;jettySize=auto;html=1;strokeColor=default;align=center;verticalAlign=middle;fontFamily=Helvetica;fontSize=11;fontColor=default;labelBackgroundColor=default;startArrow=none;startFill=0;endArrow=classic;entryX=0;entryY=0.25;entryDx=0;entryDy=0;exitX=0.001;exitY=0.668;exitDx=0;exitDy=0;exitPerimeter=0;" edge="1" parent="1" source="adD7HxoxN2HoJ7KB--vp-24" target="adD7HxoxN2HoJ7KB--vp-40">
          <mxGeometry relative="1" as="geometry">
            <mxPoint x="-1903" y="900" as="sourcePoint" />
            <mxPoint x="-2110" y="748" as="targetPoint" />
            <Array as="points">
              <mxPoint x="-1733" y="899" />
              <mxPoint x="-2110" y="899" />
              <mxPoint x="-2110" y="458" />
            </Array>
          </mxGeometry>
        </mxCell>
        <mxCell id="adD7HxoxN2HoJ7KB--vp-57" style="edgeStyle=orthogonalEdgeStyle;rounded=0;orthogonalLoop=1;jettySize=auto;html=1;strokeColor=default;align=center;verticalAlign=middle;fontFamily=Helvetica;fontSize=11;fontColor=default;labelBackgroundColor=default;startArrow=none;startFill=0;endArrow=classic;entryX=1;entryY=0;entryDx=0;entryDy=0;" edge="1" parent="1" target="adD7HxoxN2HoJ7KB--vp-40">
          <mxGeometry relative="1" as="geometry">
            <mxPoint x="-609" y="850" as="sourcePoint" />
            <mxPoint x="-1711" y="588" as="targetPoint" />
            <Array as="points">
              <mxPoint x="-609" y="440" />
            </Array>
          </mxGeometry>
        </mxCell>
      </root>
    </mxGraphModel>
  </diagram>
</mxfile>
